<svg width="85" height="85" viewBox="0 0 85 85" fill="none" xmlns="http://www.w3.org/2000/svg">
<path d="M32.9638 34.418C32.1761 34.418 31.5376 35.0566 31.5376 35.8442V79.0106C31.5376 79.7982 32.1761 80.4368 32.9638 80.4368C33.7514 80.4368 34.3899 79.7982 34.3899 79.0106V35.8442C34.3899 35.0564 33.7514 34.418 32.9638 34.418Z" fill="#FFBA08"/>
<path d="M39.4262 34.418C38.6385 34.418 38 35.0566 38 35.8442V79.0106C38 79.7982 38.6385 80.4368 39.4262 80.4368C40.2138 80.4368 40.8524 79.7982 40.8524 79.0106V35.8442C40.8524 35.0564 40.2138 34.418 39.4262 34.418Z" fill="#FFBA08"/>
<path d="M45.4262 34.418C44.6385 34.418 44 35.0566 44 35.8442V79.0106C44 79.7982 44.6385 80.4368 45.4262 80.4368C46.2138 80.4368 46.8524 79.7982 46.8524 79.0106V35.8442C46.8524 35.0564 46.2138 34.418 45.4262 34.418Z" fill="#FFBA08"/>
<path d="M52.0364 34.418C51.2487 34.418 50.6102 35.0566 50.6102 35.8442V79.0106C50.6102 79.7982 51.2487 80.4368 52.0364 80.4368C52.824 80.4368 53.4626 79.7982 53.4626 79.0106V35.8442C53.4626 35.0564 52.8238 34.418 52.0364 34.418Z" fill="#FFBA08"/>
<path d="M69.0258 82.1476H60.2799V31.4706C60.2799 30.6829 59.6413 30.0444 58.8537 30.0444H57.2278V17.0186C57.2278 16.2309 56.5893 15.5924 55.8017 15.5924H53.3543V5.60909C53.3543 4.82145 52.7158 4.1829 51.9281 4.1829H43.9263C43.9263 4.1829 43.2877 4.1829 42.5001 4.1829C41.0739 4.1829 41.0739 6.93962 41.0739 4.1829H33.0721C32.2844 4.1829 31.6459 4.82145 31.6459 5.60909V15.5924H29.1986C28.4109 15.5924 27.7724 16.2309 27.7724 17.0186V30.0444H26.1465C25.3589 30.0444 24.7203 30.6829 24.7203 31.4706V82.1476H15.9744C15.1868 82.1476 14.5482 82.7862 14.5482 83.5738C14.5482 84.3614 15.1868 85 15.9744 85H69.0258C69.8134 85 70.452 84.3614 70.452 83.5738C70.452 82.7862 69.8132 82.1476 69.0258 82.1476ZM34.4983 7.03527H50.502V15.5924H49.1663V10.394C49.1663 9.6064 48.5277 8.96785 47.7401 8.96785C46.9525 8.96785 46.3139 9.6064 46.3139 10.394V15.5924H43.9263V10.394C43.9263 9.6064 43.2877 8.96785 42.5001 8.96785C41.7125 8.96785 41.0739 9.6064 41.0739 10.394V15.5924H38.6865V10.394C38.6865 9.6064 38.0479 8.96785 37.2603 8.96785C36.4727 8.96785 35.8341 9.6064 35.8341 10.394V15.5924H34.4985L34.4983 7.03527ZM30.6247 18.4447H54.3755V30.0444H51.7861V20.6949C51.7861 19.9072 51.1475 19.2687 50.3599 19.2687C49.5723 19.2687 48.9337 19.9072 48.9337 20.6949V30.0444H46.5461V20.6949C46.5461 19.9072 45.9075 19.2687 45.1199 19.2687C44.3323 19.2687 43.6937 19.9072 43.6937 20.6949V30.0444H41.3063V20.6949C41.3063 19.9072 40.6677 19.2687 39.8801 19.2687C39.0925 19.2687 38.4539 19.9072 38.4539 20.6949V30.0444H36.0665V20.6949C36.0665 19.9072 35.4279 19.2687 34.6403 19.2687C33.8527 19.2687 33.2141 19.9072 33.2141 20.6949V30.0444H30.6247V18.4447ZM27.5727 82.1476V32.8967H57.4275V82.1476H27.5727Z" fill="#FFBA08"/>
</svg>
