<svg width="85" height="85" viewBox="0 0 85 85" fill="none" xmlns="http://www.w3.org/2000/svg">
<g clip-path="url(#clip0_14:443)">
<path d="M67.1918 0C58.425 0 51.1048 6.39275 49.6518 14.7608L28.8602 14.7605L16.3837 2.41004L11.639 6.13574L20.3516 14.7608H7.95738C6.7359 14.7608 5.63719 15.5029 5.181 16.636C4.7248 17.769 5.00327 19.0655 5.88361 19.9118L34.5687 47.4752V79.0142H24.5364C22.8836 79.0142 21.5434 80.3545 21.5434 82.0073C21.5434 83.66 22.8836 85.0003 24.5364 85.0003H50.5868C52.2392 85.0003 53.5795 83.66 53.5795 82.0073C53.5795 80.3545 52.2392 79.0142 50.5868 79.0142H40.5542V47.4755L56.5625 32.0931C59.6145 34.3789 63.2961 35.6164 67.1918 35.6164C77.0114 35.6164 85 27.6279 85 17.8082C85 7.98857 77.0114 0 67.1918 0ZM76.8961 24.549L72.25 19.9032H78.8245C78.5185 21.6055 77.8485 23.1818 76.8961 24.549ZM69.287 12.75V6.17552C70.9893 6.48118 72.5657 7.15145 73.9328 8.10391L69.287 12.75ZM65.0969 12.75L60.4536 8.10677C61.8205 7.15345 63.3963 6.48232 65.0969 6.1761V12.75ZM69.287 22.8661L73.9328 27.512C72.5657 28.4644 70.9893 29.1347 69.287 29.4403V22.8661ZM72.25 15.713L76.8958 11.0672C77.8483 12.4343 78.5185 14.0107 78.8242 15.713H72.25ZM57.4906 11.07L61.1814 14.7608H55.7715C56.1298 13.4226 56.7182 12.1779 57.4906 11.07ZM59.7315 20.7466L37.562 42.0495L15.3916 20.7463L59.7315 20.7466ZM65.0969 23.8927V29.4432C63.625 29.1819 62.2283 28.6493 60.9659 27.8623L65.0969 23.8927Z" fill="#FFBA08"/>
</g>
<defs>
<clipPath id="clip0_14:443">
<rect width="85" height="85" fill="white"/>
</clipPath>
</defs>
</svg>
