<svg width="85" height="85" viewBox="0 0 85 85" fill="none" xmlns="http://www.w3.org/2000/svg">
<path d="M61.9377 18.9054L62.0198 19.5365L61.0741 19.7322L60.9483 21.0765H62.081L63.5879 20.9314L64.3657 20.0067L63.5389 19.685L63.0862 19.1641L62.4062 18.0628L62.081 16.5053L60.8032 16.7658L60.4448 17.3147V17.9335L61.0601 18.3548L61.9377 18.9054Z" fill="#FFBA08"/>
<path d="M60.8486 19.4228L60.9168 18.5803L60.1669 18.2569L59.118 18.4998L58.3401 19.748V20.5573H59.2474L60.8486 19.4228Z" fill="#FFBA08"/>
<path d="M39.2599 23.0011L39.0292 23.5955H37.9122V24.1723H38.1779C38.1779 24.1723 38.1936 24.2947 38.2163 24.4555L38.9016 24.3978L39.3299 24.1321L39.4417 23.5955L39.9959 23.5483L40.2144 23.0973L39.7057 22.9924L39.2599 23.0011Z" fill="#FFBA08"/>
<path d="M36.3809 24.0482L36.3372 24.6129L37.1465 24.5447L37.2304 23.9783L36.7445 23.5955L36.3809 24.0482Z" fill="#FFBA08"/>
<path d="M84.9895 42.0604C84.9773 40.8175 84.9143 39.5833 84.7972 38.3684C84.4039 34.3181 83.4355 30.4357 81.9846 26.7962C81.8762 26.5252 81.7766 26.2508 81.6612 25.9833C79.7278 21.4156 77.0131 17.257 73.69 13.6682C73.4715 13.4339 73.2495 13.2032 73.0275 12.9759C72.3999 12.3239 71.7549 11.6876 71.0871 11.0775C63.5319 4.19887 53.498 0 42.4991 0C31.4076 0 21.302 4.27404 13.7259 11.2576C11.9603 12.885 10.3381 14.6611 8.86622 16.563C3.31434 23.7441 0 32.7396 0 42.4991C0 65.9355 19.0662 85 42.5009 85C58.9852 85 73.2967 75.5604 80.3414 61.8066C81.8482 58.8663 83.0212 55.732 83.8113 52.4474C84.0123 51.6136 84.1854 50.7762 84.3357 49.9284C84.764 47.5143 84.9983 45.0321 84.9983 42.4991C85 42.3523 84.9913 42.2072 84.9895 42.0604ZM76.9903 25.0743L77.2368 24.7981C77.5602 25.4257 77.8626 26.0638 78.1511 26.7105L77.749 26.6948L76.9903 26.7997V25.0743ZM70.8494 17.659L70.8564 15.7606C71.5241 16.4686 72.1674 17.1975 72.7827 17.9527L72.0171 19.0924L69.3408 19.068L69.173 18.5103L70.8494 17.659ZM79.6981 31.7083H76.5883L74.6934 30.2976L72.6988 30.4916V31.7083H72.0678L71.386 31.2223L67.9318 30.3465V28.109L63.5547 28.4499L62.1982 29.1788H60.4606L59.6093 29.0932L57.4993 30.2644V32.4687L53.1868 35.5803L53.5452 36.9088H54.4192L54.1902 38.1744L53.5749 38.3999L53.5417 41.7072L57.2686 45.9516H58.8908L58.9887 45.6929H61.9045L62.7453 44.915H64.399L65.3062 45.824L67.771 46.0792L67.4441 49.3568L70.1798 54.1867L68.7394 56.94L68.8373 58.237L69.9718 59.368V62.4866L71.4612 64.4899V67.0805H72.7478C65.5877 75.8716 54.6902 81.5021 42.4974 81.5021C20.9926 81.5039 3.49614 64.0057 3.49614 42.4991C3.49614 37.0853 4.60792 31.925 6.60946 27.235V26.0183L8.00442 24.3244C8.48864 23.4102 9.00781 22.5187 9.56195 21.6499L9.62488 22.3578L8.00617 24.3244C7.50447 25.2719 7.03599 26.2403 6.61121 27.235V29.455L8.23167 30.2347V33.32L9.78571 35.9718L11.0496 36.1659L11.2121 35.2569L9.72103 32.9564L9.4291 30.7206H10.3031L10.672 33.0211L12.8274 36.1659L12.2715 37.1815L13.642 39.2774L17.0455 40.12V39.5694L18.4072 39.7634L18.2778 40.7353L19.3477 40.9311L20.9996 41.3821L23.3333 44.0409L26.3137 44.2664L26.6057 46.698L24.5657 48.1244L24.4695 50.2955L24.1776 51.6241L27.1283 55.3177L27.3538 56.5833C27.3538 56.5833 28.4236 56.8735 28.5548 56.8735C28.6841 56.8735 30.9531 58.5919 30.9531 58.5919V65.2678L31.7625 65.495L31.2118 68.5751L32.5736 70.3914L32.3218 73.4435L34.1206 76.6058L36.4298 78.623L38.7513 78.665L38.9785 77.9186L37.2724 76.4816L37.3703 75.7684L37.6762 74.8944L37.7409 74.0029L36.5871 73.9679L36.005 73.2372L36.963 72.316L37.0923 71.6203L36.0225 71.3143L36.0854 70.6676L37.6098 70.4368L39.9277 69.3233L40.7056 67.8969L43.1372 64.7853L42.5848 62.352L43.3312 61.0567L45.567 61.1248L47.0721 59.9326L47.558 55.2373L49.2275 53.1169L49.5194 51.7552L47.9968 51.2675L46.9917 49.619L43.5567 49.5841L40.8332 48.5457L40.7039 46.6036L39.7949 45.0146L37.3318 44.9779L35.9089 42.7439L34.645 42.1268L34.5804 42.8085L32.2799 42.9449L31.4373 41.7719L29.0372 41.2842L27.0602 43.5689L23.9486 43.041L23.7231 39.5344L21.4523 39.1463L22.3631 37.4262L22.1026 36.4386L19.1187 38.4331L17.2412 38.2041L16.5717 36.7375L16.9808 35.2254L18.0156 33.3183L20.3983 32.1121L24.9992 32.1103L24.9869 33.514L26.6406 34.2832L26.5095 31.8848L27.7017 30.6857L30.107 29.1054L30.2714 27.9936L32.6697 25.4974L35.2202 24.0849L34.9947 23.8996L36.7217 22.2739L37.3545 22.4417L37.6447 22.8053L38.3003 22.0781L38.4611 22.0065L37.7426 21.9051L37.0137 21.6621V20.9629L37.4 20.6465H38.2513L38.6411 20.8178L38.9785 21.4995L39.3911 21.4366V21.3772L39.5099 21.4174L40.7056 21.2338L40.8752 20.65L41.5569 20.8213V21.4541L40.9241 21.8894H40.9259L41.0185 22.5833L43.1844 23.2511C43.1844 23.2511 43.1861 23.2598 43.1896 23.2773L43.6878 23.2354L43.721 22.2967L42.0044 21.5153L41.9065 21.0643L43.3312 20.5783L43.3941 19.2148L41.9048 18.3076L41.8069 16.0088L39.7651 17.0122H39.0205L39.2162 15.2624L36.4368 14.6069L35.2866 15.4757V18.1258L33.2186 18.7813L32.39 20.5084L31.4915 20.6535V18.4439L29.5477 18.1747L28.5757 17.5419L28.1842 16.1102L31.6611 14.0755L33.362 13.558L33.5333 14.7013L34.4807 14.6523L34.5541 14.0772L35.5453 13.9356L35.5628 13.7346L35.1362 13.558L35.0384 12.9497L36.2568 12.8466L36.9927 12.0809L37.0329 12.025L37.0416 12.0285L37.2654 11.7977L39.8263 11.4743L40.9591 12.4358L37.9891 14.0178L41.7684 14.9093L42.2579 13.6455H43.9098L44.4937 12.5442L43.326 12.2522V10.859L39.6638 9.23681L37.136 9.52874L35.7096 10.2752L35.8075 12.0897L34.3164 11.8624L34.0874 10.859L35.5156 9.56195L32.9232 9.4326L32.1785 9.6581L31.8551 10.5321L32.827 10.6965L32.633 11.6684L30.9811 11.7663L30.7224 12.4131L28.3258 12.4795C28.3258 12.4795 28.2593 11.1195 28.1632 11.1195C28.067 11.1195 30.0424 11.0863 30.0424 11.0863L31.4705 9.69131L30.6909 9.30149L29.6543 10.3084L27.9342 10.2105L26.8976 8.78406H24.6933L22.3928 10.5024H24.501L24.6933 11.1195L24.1461 11.6282L26.4798 11.6929L26.8364 12.5354L24.209 12.4375L24.0814 11.789L22.4295 11.4324L21.5537 10.9464L19.5871 10.9622C26.0253 6.27208 33.9423 3.49614 42.4991 3.49614C52.3617 3.49614 61.3731 7.18283 68.2482 13.2399L67.785 14.0685L65.9862 14.773L65.2276 15.5963L65.4024 16.556L66.3306 16.6853L66.89 18.0838L68.4912 17.4388L68.7552 19.3092H68.2727L66.9582 19.1152L65.5003 19.3599L64.0896 21.3527L62.0723 21.6691L61.7804 23.3962L62.6317 23.5972L62.3852 24.7073L60.3819 24.3052L58.5447 24.7073L58.1549 25.7299L58.473 27.8765L59.5516 28.3817L61.3608 28.3712L62.5827 28.2611L62.9551 27.2892L64.864 24.8086L66.1208 25.0656L67.3585 23.9468L67.5892 24.8209L70.6343 26.8749L70.262 27.3748L68.8898 27.3014L69.4177 28.0496L70.262 28.2349L71.2514 27.8223L71.2304 26.6301L71.6692 26.4099L71.3161 26.0358L69.2848 24.903L68.7499 23.3979H70.4386L70.9787 23.9329L72.4331 25.1862L72.4943 26.7018L74.0011 28.3065L74.5623 26.1075L75.6059 25.5376L75.8016 27.3363L76.8208 28.4551L78.8538 28.4202C79.2471 29.4323 79.6002 30.4619 79.9096 31.5125L79.6981 31.7083ZM80.3309 33.6766L80.4533 33.5333C80.504 33.7535 80.5582 33.9738 80.6071 34.1975L80.3309 33.6766Z" fill="#FFBA08"/>
<path d="M6.61121 26.0183V27.235C7.03599 26.2421 7.50447 25.2736 8.00617 24.3244L6.61121 26.0183Z" fill="#FFBA08"/>
</svg>
