<svg width="85" height="85" viewBox="0 0 85 85" fill="none" xmlns="http://www.w3.org/2000/svg">
<g clip-path="url(#clip0_21:27)">
<path d="M80.1756 64.7451V61.377C80.1756 58.3083 77.7568 55.8007 74.7263 55.6431V28.1786H78.0784C79.2364 28.1786 80.1756 27.2397 80.1756 26.0814V17.0618C80.1756 16.0771 79.4905 15.225 78.5289 15.0135L42.9506 7.18796C42.6534 7.1226 42.3462 7.1226 42.0494 7.18796L6.47105 15.0138C5.50947 15.2253 4.82437 16.0775 4.82437 17.0621V26.0814C4.82437 27.2397 5.76358 28.1786 6.92161 28.1786H10.2737V55.6434C7.24319 55.8007 4.82437 58.3083 4.82437 61.3773V64.7455C2.08571 65.2387 0 67.6341 0 70.5126V75.7637C0 76.9221 0.939217 77.861 2.09725 77.861H6.92161H78.0784H82.9027C84.0608 77.861 85 76.9221 85 75.7637V70.5126C85 67.6341 82.9139 65.2387 80.1756 64.7451ZM9.01886 61.377C9.01886 60.5199 9.71619 59.8226 10.5733 59.8226H74.4267C75.2838 59.8226 75.9811 60.5199 75.9811 61.377V64.6469H9.01886V61.377ZM20.4384 55.6281H14.4682V28.79H20.4384V55.6281ZM43.6692 28.1786V55.6281H41.3311V28.1786H43.6692ZM53.8342 55.6281H47.8637V28.79H53.8342V55.6281ZM70.5318 55.6281H64.5616V28.79H70.5318V55.6281ZM37.1363 28.79V55.6281H31.1658V28.79H37.1363ZM4.19449 70.5126C4.19449 69.5912 4.94426 68.8418 5.8653 68.8418H6.92126H9.01851H75.9808H78.078H79.134C80.0554 68.8418 80.8048 69.5915 80.8048 70.5126V73.6665H75.9804H9.01886H4.19449V70.5126ZM60.3671 55.6281H58.0287V28.1786H60.3671V55.6281ZM9.01886 18.748L42.5 11.3835L75.9811 18.748V23.9838H9.01886V18.748ZM26.9713 28.1786V55.6281H24.6329V28.1786H26.9713Z" fill="#FFBA08"/>
</g>
<defs>
<clipPath id="clip0_21:27">
<rect width="85" height="85" fill="white"/>
</clipPath>
</defs>
</svg>
