<svg width="185" height="46" viewBox="0 0 185 46" fill="none" xmlns="http://www.w3.org/2000/svg">
<g clip-path="url(#clip0_39:25)">
<path d="M3.66966 18.1292L6.27676 28.1523C6.84638 30.3431 7.37218 32.3916 7.74463 34.4291H7.86512C8.31425 32.4354 8.96054 30.3212 9.6178 28.1523L12.8383 18.1292H15.8507L18.907 27.988C19.6409 30.3541 20.2105 32.4354 20.6596 34.4291H20.813C21.1934 32.2703 21.6944 30.1345 22.3137 28.0318L25.129 18.173H28.6781L22.3137 37.8906H19.0275L16.0151 28.4809C15.3249 26.2901 14.7553 24.3293 14.2624 22.007H14.2405C13.7465 24.1983 13.1284 26.3598 12.3892 28.4809L9.21249 37.8577H5.92623L0 18.1292H3.66966Z" fill="#47585B"/>
<path d="M49.6993 27.8346C49.6993 35.1301 44.6494 38.3068 39.8405 38.3068C34.4948 38.3068 30.376 34.3962 30.376 28.1523C30.376 21.5798 34.703 17.6801 40.1582 17.6801C45.8653 17.6801 49.6993 21.7989 49.6993 27.8346ZM34.0457 28.0318C34.0457 32.3587 36.5323 35.6121 40.0377 35.6121C43.543 35.6121 46.0296 32.3916 46.0296 27.9442C46.0296 24.6031 44.3646 20.3639 40.1253 20.3639C35.886 20.3639 34.0457 24.2855 34.0457 28.0318Z" fill="#47585B"/>
<path d="M54.2343 24.2855C54.2343 21.9632 54.2343 19.9038 54.07 18.1292H57.2139L57.3344 21.996H57.4987C57.8382 20.79 58.5512 19.7227 59.5352 18.9472C60.5193 18.1718 61.7238 17.7282 62.9758 17.6801C63.3191 17.6763 63.6615 17.7168 63.9945 17.8006V21.1854C63.5948 21.1013 63.1871 21.0609 62.7786 21.0649C60.2482 21.0649 58.4517 22.9819 57.9697 25.6657C57.8557 26.2321 57.7934 26.8078 57.7835 27.3855V37.9015H54.2343V24.2855Z" fill="#47585B"/>
<path d="M67.7409 8.91672H71.3229V37.8577H67.7409V8.91672Z" fill="#47585B"/>
<path d="M94.3925 8.91672V32.764C94.3925 34.5167 94.3925 36.5103 94.5568 37.8577H91.3362L91.1829 34.429H91.0953C90.4558 35.6525 89.4822 36.6695 88.2878 37.3617C87.0933 38.054 85.727 38.3931 84.3475 38.3397C79.5824 38.3397 75.9127 34.3085 75.9127 28.3166C75.9127 21.7441 79.9439 17.7129 84.7528 17.7129C85.9246 17.6369 87.0954 17.8763 88.1433 18.406C89.1913 18.9358 90.0782 19.7367 90.7119 20.7253H90.7885V8.91672H94.3925ZM90.8104 26.1586C90.8154 25.65 90.7603 25.1426 90.6461 24.6469C90.389 23.4619 89.731 22.4017 88.7831 21.6454C87.8352 20.8891 86.6555 20.4829 85.4429 20.4953C81.7294 20.4953 79.5276 23.7816 79.5276 28.1632C79.5276 32.1506 81.4884 35.4587 85.3552 35.4587C86.5896 35.4549 87.7853 35.0275 88.7424 34.2479C89.6994 33.4683 90.3599 32.3837 90.6133 31.1756C90.7471 30.6532 90.8133 30.1157 90.8104 29.5763V26.1586Z" fill="#47585B"/>
<path d="M104.678 13.397V18.1292H109.816V20.813H104.678V31.4495C104.678 33.9032 105.38 35.2835 107.373 35.2835C108.075 35.3122 108.778 35.2309 109.455 35.0425L109.619 37.7263C108.599 38.1028 107.518 38.2849 106.431 38.263C105.712 38.2997 104.994 38.1795 104.327 37.9109C103.659 37.6423 103.057 37.2317 102.564 36.7075C101.546 35.6121 101.173 33.9032 101.173 31.581V20.813H98.1169V18.1292H101.173V14.5034L104.678 13.397Z" fill="#FFBA08"/>
<path d="M113.858 24.2855C113.858 21.9632 113.858 19.9038 113.694 18.1292H116.838L116.958 21.996H117.122C117.462 20.79 118.175 19.7227 119.159 18.9472C120.143 18.1718 121.348 17.7282 122.6 17.6801C122.943 17.6763 123.285 17.7168 123.618 17.8006V21.1854C123.219 21.1013 122.811 21.0609 122.402 21.0649C119.872 21.0649 118.021 22.9819 117.593 25.6657C117.489 26.2184 117.434 26.7793 117.429 27.3417V37.8577H113.88L113.858 24.2855Z" fill="#FFBA08"/>
<path d="M131.352 12.5864C131.352 13.1761 131.118 13.7417 130.701 14.1588C130.284 14.5758 129.718 14.8101 129.128 14.8101C128.539 14.8101 127.973 14.5758 127.556 14.1588C127.139 13.7417 126.905 13.1761 126.905 12.5864C126.897 12.2894 126.95 11.994 127.06 11.7182C127.17 11.4423 127.335 11.1918 127.546 10.9817C127.756 10.7717 128.006 10.6066 128.282 10.4964C128.558 10.3862 128.853 10.3332 129.15 10.3408C129.443 10.3392 129.734 10.3966 130.005 10.5094C130.276 10.6223 130.521 10.7883 130.726 10.9977C130.932 11.2072 131.093 11.4557 131.2 11.7286C131.308 12.0015 131.359 12.2932 131.352 12.5864ZM127.354 37.8577V18.1402H130.947V37.8577H127.354Z" fill="#FFBA08"/>
<path d="M136.928 24.5703C136.928 22.0399 136.84 20.0024 136.763 18.1292H139.984L140.137 21.5141H140.214C140.924 20.2981 141.951 19.2986 143.187 18.6231C144.422 17.9476 145.818 17.6216 147.225 17.6801C151.99 17.6801 155.583 21.7112 155.583 27.7032C155.583 34.8015 151.201 38.3069 146.611 38.3069C145.418 38.3595 144.231 38.1015 143.168 37.5581C142.104 37.0147 141.199 36.2046 140.543 35.2068H140.455V45.92H136.928V24.5703ZM140.466 29.8283C140.478 30.3214 140.533 30.8125 140.63 31.2962C140.931 32.495 141.623 33.5591 142.598 34.3192C143.572 35.0794 144.773 35.4921 146.009 35.4916C149.799 35.4916 152.001 32.3916 152.001 27.8237C152.001 23.8692 149.919 20.4953 146.129 20.4953C144.863 20.5312 143.645 20.9862 142.666 21.7892C141.686 22.5921 141.001 23.6974 140.718 24.9318C140.567 25.4073 140.483 25.9012 140.466 26.3996V29.8283Z" fill="#FFBA08"/>
<path d="M-1.09542 35.2178C100.231 44.6384 159.822 18.1292 159.822 18.1292C159.822 18.1292 117.922 47.9137 -2.63997 42.1408" fill="#F5F8FA"/>
<path d="M101.217 32.8626C138.034 27.2212 158.179 18.2387 158.179 18.2387C158.179 18.2387 137.366 32.4792 102.751 37.0033" stroke="#FFBA08" stroke-miterlimit="10"/>
<path d="M5.38947 35.9846C37.3468 38.59 69.497 37.5426 101.217 32.8626" stroke="#47585B" stroke-miterlimit="10"/>
<path d="M174.676 22.489C174.106 18.9179 173.581 15.544 173.022 12.0277L172.124 12.7617C170.123 14.5258 167.823 15.9171 165.332 16.8695C164.94 17.0413 164.512 17.1132 164.086 17.0787C163.659 17.0443 163.248 16.9047 162.889 16.6723C161.345 15.6864 159.745 14.7663 158.157 13.8242C158.395 13.4763 158.728 13.2045 159.117 13.0413C159.505 12.8781 159.933 12.8304 160.348 12.9041C161.599 13.0374 162.858 13.0996 164.116 13.0903C164.511 13.0841 164.894 12.9538 165.212 12.7178C169.593 8.99341 173.975 5.25437 178.357 1.50073C179.495 0.498454 180.97 -0.037461 182.486 9.17108e-06C183.845 9.17108e-06 184.414 0.898254 183.834 2.19085C183.513 2.83889 183.07 3.41907 182.53 3.8997C181.248 5.0718 179.912 6.17818 178.576 7.28455C178.402 7.4121 178.259 7.57649 178.157 7.7659C178.055 7.95531 177.996 8.16502 177.984 8.37997C177.699 12.0825 177.349 15.785 177.064 19.4875C177.061 19.8625 176.967 20.2312 176.79 20.5615C176.612 20.8918 176.357 21.1737 176.045 21.3826C175.57 21.7273 175.113 22.0966 174.676 22.489Z" fill="#47585B"/>
<path d="M162.604 6.92306C163.623 6.04672 164.335 4.90749 165.978 5.15943C167.621 5.41138 169.265 5.42233 170.995 5.54283L171.554 5.61951C170.305 6.71493 169.166 7.63508 168.016 8.58809C167.95 8.63572 167.875 8.6691 167.796 8.68608C167.717 8.70306 167.635 8.70327 167.556 8.68668C166.022 8.2047 164.488 7.71176 162.966 7.20786C162.856 7.175 162.78 7.06546 162.604 6.92306Z" fill="#47585B"/>
</g>
<defs>
<clipPath id="clip0_39:25">
<rect width="184.064" height="45.92" fill="white"/>
</clipPath>
</defs>
</svg>
