<svg width="239" height="27" viewBox="0 0 239 27" fill="none" xmlns="http://www.w3.org/2000/svg">
<path d="M68.3409 11.6421C68.0171 9.23013 66.0739 7.73865 62.7671 7.73865C59.4176 7.73865 57.2102 9.28979 57.2188 11.8125C57.2102 13.7727 58.446 15.0426 61.0028 15.554L63.2699 16.0057C64.4119 16.2358 64.9318 16.6534 64.9489 17.3097C64.9318 18.0852 64.0881 18.6392 62.8182 18.6392C61.5227 18.6392 60.6619 18.0852 60.4403 17.0199L56.8693 17.2074C57.2102 19.7131 59.3409 21.2557 62.8097 21.2557C66.2017 21.2557 68.6307 19.5256 68.6392 16.9432C68.6307 15.0512 67.3949 13.9176 64.8551 13.3977L62.4858 12.9205C61.2671 12.6563 60.8153 12.2387 60.8239 11.608C60.8153 10.8239 61.7017 10.3125 62.8267 10.3125C64.0881 10.3125 64.8381 11.0029 65.0171 11.8466L68.3409 11.6421Z" fill="#F8F8F8"/>
<path d="M70.9254 25.9091H74.5561V18.9034H74.6669C75.1698 19.9943 76.2692 21.2131 78.3828 21.2131C81.3658 21.2131 83.6925 18.8523 83.6925 14.4716C83.6925 9.97161 81.2635 7.73865 78.3913 7.73865C76.201 7.73865 75.1527 9.04263 74.6669 10.108H74.505V7.9091H70.9254V25.9091ZM74.4794 14.4546C74.4794 12.1193 75.468 10.6279 77.2323 10.6279C79.0305 10.6279 79.9851 12.1875 79.9851 14.4546C79.9851 16.7387 79.0135 18.3239 77.2323 18.3239C75.4851 18.3239 74.4794 16.7898 74.4794 14.4546Z" fill="#F8F8F8"/>
<path d="M89.8459 21.2472C91.7805 21.2472 93.0334 20.4034 93.6726 19.1847H93.7749V21H97.218V12.1705C97.218 9.05115 94.576 7.73865 91.6612 7.73865C88.5249 7.73865 86.4624 9.23865 85.9595 11.625L89.3175 11.8977C89.5646 11.0284 90.3402 10.3892 91.6442 10.3892C92.88 10.3892 93.5874 11.0114 93.5874 12.0852V12.1364C93.5874 12.9801 92.6925 13.0909 90.4169 13.3125C87.826 13.5512 85.4993 14.4205 85.4993 17.3438C85.4993 19.9347 87.3487 21.2472 89.8459 21.2472ZM90.8857 18.7415C89.7692 18.7415 88.968 18.2216 88.968 17.2244C88.968 16.2017 89.8118 15.6989 91.0902 15.5199C91.8828 15.4091 93.1783 15.2216 93.6129 14.9318V16.321C93.6129 17.6932 92.4794 18.7415 90.8857 18.7415Z" fill="#F8F8F8"/>
<path d="M105.95 21.2557C109.435 21.2557 111.626 19.2102 111.796 16.2017H108.37C108.157 17.5994 107.237 18.3835 105.992 18.3835C104.296 18.3835 103.197 16.9602 103.197 14.4546C103.197 11.983 104.305 10.5682 105.992 10.5682C107.322 10.5682 108.174 11.446 108.37 12.75H111.796C111.643 9.72445 109.35 7.73865 105.933 7.73865C101.961 7.73865 99.5064 10.4915 99.5064 14.5057C99.5064 18.4858 101.918 21.2557 105.95 21.2557Z" fill="#F8F8F8"/>
<path d="M120.087 21.2557C123.325 21.2557 125.507 19.679 126.018 17.25L122.661 17.0284C122.294 18.0256 121.357 18.5455 120.146 18.5455C118.331 18.5455 117.18 17.3438 117.18 15.3921V15.3835H126.095V14.3864C126.095 9.93752 123.402 7.73865 119.942 7.73865C116.089 7.73865 113.592 10.4744 113.592 14.5142C113.592 18.6648 116.055 21.2557 120.087 21.2557ZM117.18 13.1335C117.257 11.6421 118.391 10.4489 120.001 10.4489C121.578 10.4489 122.669 11.5739 122.678 13.1335H117.18Z" fill="#F8F8F8"/>
<path d="M135.428 7.9091H132.964V4.77274H129.334V7.9091H127.544V10.6364H129.334V17.4546C129.317 20.0199 131.064 21.2898 133.697 21.179C134.635 21.1449 135.3 20.9574 135.666 20.8381L135.095 18.1364C134.916 18.1705 134.533 18.2557 134.192 18.2557C133.467 18.2557 132.964 17.983 132.964 16.9773V10.6364H135.428V7.9091Z" fill="#F8F8F8"/>
<path d="M137.793 21H141.423V13.5938C141.423 11.983 142.599 10.875 144.202 10.875C144.705 10.875 145.395 10.9602 145.736 11.071V7.84945C145.412 7.77274 144.96 7.7216 144.594 7.7216C143.128 7.7216 141.926 8.57388 141.449 10.1932H141.313V7.9091H137.793V21Z" fill="#F8F8F8"/>
<path d="M150.971 21.2472C152.906 21.2472 154.158 20.4034 154.798 19.1847H154.9V21H158.343V12.1705C158.343 9.05115 155.701 7.73865 152.786 7.73865C149.65 7.73865 147.587 9.23865 147.085 11.625L150.442 11.8977C150.69 11.0284 151.465 10.3892 152.769 10.3892C154.005 10.3892 154.712 11.0114 154.712 12.0852V12.1364C154.712 12.9801 153.817 13.0909 151.542 13.3125C148.951 13.5512 146.624 14.4205 146.624 17.3438C146.624 19.9347 148.474 21.2472 150.971 21.2472ZM152.011 18.7415C150.894 18.7415 150.093 18.2216 150.093 17.2244C150.093 16.2017 150.937 15.6989 152.215 15.5199C153.008 15.4091 154.303 15.2216 154.738 14.9318V16.321C154.738 17.6932 153.604 18.7415 152.011 18.7415Z" fill="#F8F8F8"/>
<path d="M172.896 7.9091H169.052L166.342 17.2756H166.205L163.487 7.9091H159.651L164.228 21H168.319L172.896 7.9091Z" fill="#F8F8F8"/>
<path d="M180.274 21.2557C183.513 21.2557 185.695 19.679 186.206 17.25L182.848 17.0284C182.482 18.0256 181.544 18.5455 180.334 18.5455C178.518 18.5455 177.368 17.3438 177.368 15.3921V15.3835H186.283V14.3864C186.283 9.93752 183.59 7.73865 180.129 7.73865C176.277 7.73865 173.78 10.4744 173.78 14.5142C173.78 18.6648 176.243 21.2557 180.274 21.2557ZM177.368 13.1335C177.445 11.6421 178.578 10.4489 180.189 10.4489C181.766 10.4489 182.857 11.5739 182.865 13.1335H177.368Z" fill="#F8F8F8"/>
<path d="M192.283 3.54547H188.652V21H192.283V3.54547Z" fill="#F8F8F8"/>
<path d="M195.191 21H198.822V7.9091H195.191V21ZM197.015 6.2216C198.097 6.2216 198.984 5.3949 198.984 4.3807C198.984 3.37501 198.097 2.54831 197.015 2.54831C195.941 2.54831 195.055 3.37501 195.055 4.3807C195.055 5.3949 195.941 6.2216 197.015 6.2216Z" fill="#F8F8F8"/>
<path d="M205.361 13.4318C205.369 11.7443 206.375 10.7557 207.841 10.7557C209.298 10.7557 210.176 11.7102 210.168 13.3125V21H213.798V12.6648C213.798 9.61365 212.009 7.73865 209.281 7.73865C207.338 7.73865 205.932 8.6932 205.344 10.2188H205.19V7.9091H201.73V21H205.361V13.4318Z" fill="#F8F8F8"/>
<path d="M222.558 26.1818C226.299 26.1818 228.958 24.4773 228.958 21.1279V7.9091H225.353V10.108H225.217C224.731 9.04263 223.665 7.73865 221.475 7.73865C218.603 7.73865 216.174 9.97161 216.174 14.429C216.174 18.7841 218.535 20.8125 221.484 20.8125C223.572 20.8125 224.739 19.7642 225.217 18.6818H225.37V21.0767C225.37 22.875 224.219 23.5739 222.643 23.5739C221.04 23.5739 220.231 22.875 219.933 22.0824L216.575 22.5341C217.009 24.5966 219.029 26.1818 222.558 26.1818ZM222.634 18.0852C220.853 18.0852 219.881 16.6705 219.881 14.4119C219.881 12.1875 220.836 10.6279 222.634 10.6279C224.398 10.6279 225.387 12.1193 225.387 14.4119C225.387 16.7216 224.381 18.0852 222.634 18.0852Z" fill="#F8F8F8"/>
<path d="M236.571 21.2216C237.662 21.2216 238.608 20.3097 238.616 19.1761C238.608 18.0597 237.662 17.1477 236.571 17.1477C235.446 17.1477 234.517 18.0597 234.526 19.1761C234.517 20.3097 235.446 21.2216 236.571 21.2216Z" fill="#FF57B2"/>
<path d="M9.88103 0.55307L0 12.0576L9.88103 23.5601L12.2174 19.8829L5.55897 12.0556L12.2174 4.2283L9.88103 0.55307ZM14.2051 23.2854H18.5415L25.4359 0.764989H21.0974L14.2051 23.2854ZM30.119 0.55307L27.7826 4.23027L34.441 12.0576L27.7826 19.8848L30.119 23.562L40 12.0595L30.119 0.55307Z" fill="#FF57B2"/>
</svg>
